HIERARCHY
ROOT Hips
{
	OFFSET -3.958830 18.904000 13.208200
	CHANNELS 6 Xposition Yposition Zposition Zrotation Yrotation Xrotation 
	JOINT LHipJoint
	{
		OFFSET 0.000000 0.000000 0.000000
		CHANNELS 3 Zrotation Yrotation Xrotation
		JOINT LeftUpLeg
		{
			OFFSET 1.800000 -1.400000 0.085000
			CHANNELS 3 Zrotation Yrotation Xrotation
			JOINT LeftLeg
			{
				OFFSET 2.215000 -6.000000 0.000000
				CHANNELS 3 Zrotation Yrotation Xrotation
				JOINT LeftFoot
				{
					OFFSET 2.500000 -6.900000 0.000000
					CHANNELS 3 Zrotation Yrotation Xrotation
					JOINT LeftToeBase
					{
						OFFSET 0.200000 -0.500000 1.950000
						CHANNELS 3 Zrotation Yrotation Xrotation
						End Site
						{
							OFFSET 0.000000 0.000000 0.000000
						}
					}
				}
			}
		}
	}
	JOINT RHipJoint
	{
		OFFSET 0.000000 0.000000 0.000000
		CHANNELS 3 Zrotation Yrotation Xrotation
		JOINT RightUpLeg
		{
			OFFSET -1.800000 -1.400000 0.085000
			CHANNELS 3 Zrotation Yrotation Xrotation
			JOINT RightLeg
			{
				OFFSET -2.215000 -6.000000 0.000000
				CHANNELS 3 Zrotation Yrotation Xrotation
				JOINT RightFoot
				{
					OFFSET -2.500000 -6.900000 0.000000
					CHANNELS 3 Zrotation Yrotation Xrotation
					JOINT RightToeBase
					{
						OFFSET -0.200000 -0.500000 1.950000
						CHANNELS 3 Zrotation Yrotation Xrotation
						End Site
						{
							OFFSET 0.000000 0.000000 0.000000
						}
					}
				}
			}
		}
	}
	JOINT LowerBack
	{
		OFFSET 0.000000 0.000000 0.000000
		CHANNELS 3 Zrotation Yrotation Xrotation
		JOINT Spine
		{
			OFFSET -0.087000 1.940000 -0.288900
			CHANNELS 3 Zrotation Yrotation Xrotation
			JOINT Spine1
			{
				OFFSET 0.000000 1.950000 0.060000
				CHANNELS 3 Zrotation Yrotation Xrotation
				JOINT Neck
				{
					OFFSET 0.000000 0.000000 0.000000
					CHANNELS 3 Zrotation Yrotation Xrotation
					JOINT Neck1
					{
						OFFSET 0.000000 1.600000 0.340000
						CHANNELS 3 Zrotation Yrotation Xrotation
						JOINT Head
						{
							OFFSET 0.000000 1.667000 -0.240000
							CHANNELS 3 Zrotation Yrotation Xrotation
							End Site
							{
								OFFSET 0.000000 0.000000 0.000000
							}
						}
					}
				}
				JOINT LeftShoulder
				{
					OFFSET 0.000000 0.000000 0.000000
					CHANNELS 3 Zrotation Yrotation Xrotation
					JOINT LeftArm
					{
						OFFSET 2.700000 1.550000 -0.730000
						CHANNELS 3 Zrotation Yrotation Xrotation
						JOINT LeftForeArm
						{
							OFFSET 5.450000 0.000000 0.000000
							CHANNELS 3 Zrotation Yrotation Xrotation
							JOINT LeftHand
							{
								OFFSET 3.450000 0.000000 0.000000
								CHANNELS 3 Zrotation Yrotation Xrotation
								JOINT LeftHandIndex1
								{
									OFFSET 0.750000 0.000000 0.000000
									CHANNELS 3 Zrotation Yrotation Xrotation
									End Site
									{
										OFFSET 0.000000 0.000000 0.000000
									}
								}
							}
						}
					}
				}
				JOINT RightShoulder
				{
					OFFSET 0.000000 0.000000 0.000000
					CHANNELS 3 Zrotation Yrotation Xrotation
					JOINT RightArm
					{
						OFFSET -2.700000 1.550000 -0.730000
						CHANNELS 3 Zrotation Yrotation Xrotation
						JOINT RightForeArm
						{
							OFFSET -5.450000 0.000000 0.000000
							CHANNELS 3 Zrotation Yrotation Xrotation
							JOINT RightHand
							{
								OFFSET -3.450000 0.000000 0.000000
								CHANNELS 3 Zrotation Yrotation Xrotation
								JOINT RightHandIndex1
								{
									OFFSET -0.750000 0.000000 0.000000
									CHANNELS 3 Zrotation Yrotation Xrotation
									End Site
									{
										OFFSET 0.000000 0.000000 0.000000
									}
								}
							}
						}
					}
				}
			}
		}
	}
}
MOTION
Frames: 6
Frame Time: 0.016667
-0.564300 16.229930 -0.797940 -2.528694 -25.288296 8.430762 -14.672509 12.469147 2.392371 7.245194 -1.519787 -12.291600 -2.893733 4.028040 9.349013 -0.387561 3.588686 3.695553 0.140960 0.014320 -0.142590 18.671516 -11.743532 3.244272 -7.667043 2.470228 -21.570390 7.278858 -3.375092 5.806126 0.339452 -3.390088 3.355766 0.247440 0.916940 0.342400 -4.613710 2.074207 -6.734743 11.574633 0.318739 2.494236 -3.224345 -0.113523 -2.148132 4.042988 0.854249 -4.271633 3.364262 0.220876 20.652290 -5.423270 0.400940 8.640030 -3.865225 12.485734 -2.397051 -32.088667 -1.284606 -1.071154 37.927193 -34.557717 -6.363781 -4.596617 3.511145 -0.396590 0.811360 -0.595760 0.380920 -4.895818 -8.881207 1.732671 30.619521 20.923004 2.889047 -45.567000 41.562584 -16.406176 1.910727 -2.193698 -0.203250 0.096700 -0.017310 0.155900 
-0.564350 16.229910 -0.798150 -2.540541 -25.266057 8.432247 -14.671834 12.469377 2.391055 7.250584 -1.522547 -12.309109 -2.880975 4.027838 9.377437 -0.387792 3.589005 3.695743 0.142500 0.015680 -0.141220 18.672157 -11.745133 3.244015 -7.657580 2.470101 -21.566025 7.280126 -3.376841 5.821863 0.339369 -3.391226 3.355493 0.248920 0.917140 0.343070 -4.615709 2.076604 -6.733446 11.598202 0.304371 2.485248 -3.246428 -0.127412 -2.115919 4.056230 0.851524 -4.276929 3.361563 0.222276 20.636264 -5.426960 0.396820 8.635520 -3.829085 12.484829 -2.398566 -32.131345 -1.292718 -1.076176 37.936252 -34.527619 -6.361396 -4.597677 3.511066 -0.397540 0.812170 -0.595790 0.381570 -4.956328 -8.874880 1.741605 30.613503 20.965706 2.908775 -45.533168 41.519816 -16.392106 1.911029 -2.196436 -0.202950 0.096750 -0.018510 0.155870 
-0.564460 16.229840 -0.798270 -2.558629 -25.228448 8.440462 -14.671250 12.469202 2.388865 7.256127 -1.527764 -12.347170 -2.860035 4.027621 9.426506 -0.390905 3.590470 3.695146 0.143590 0.016740 -0.140560 18.672919 -11.747828 3.243066 -7.638867 2.471299 -21.564364 7.276861 -3.380996 5.854260 0.340344 -3.394464 3.354214 0.251090 0.919280 0.344340 -4.617640 2.081487 -6.730247 11.624494 0.286696 2.464305 -3.288746 -0.147023 -2.073906 4.094295 0.857254 -4.278937 3.376944 0.231536 20.589148 -5.446850 0.407510 8.632040 -3.781122 12.498109 -2.417405 -32.157228 -1.325514 -1.068839 37.942224 -34.475666 -6.350706 -4.602163 3.511696 -0.399400 0.815050 -0.597650 0.381590 -5.075724 -8.883996 1.760087 30.625140 21.042537 2.956281 -45.496586 41.444228 -16.376009 1.910289 -2.201606 -0.203420 0.097080 -0.018050 0.155620 
-0.564630 16.229980 -0.798570 -2.596106 -25.189038 8.449580 -14.669697 12.470723 2.386217 7.276780 -1.532082 -12.394727 -2.832321 4.030209 9.504569 -0.394312 3.592284 3.693479 0.144420 0.018670 -0.140650 18.673989 -11.753330 3.242352 -7.598820 2.474265 -21.564179 7.264496 -3.387213 5.914696 0.340897 -3.396476 3.352562 0.253740 0.921110 0.345540 -4.620338 2.089155 -6.727622 11.674348 0.266629 2.454553 -3.348500 -0.165558 -2.049067 4.155860 0.863940 -4.276880 3.397205 0.256601 20.554728 -5.472730 0.435760 8.610900 -3.714784 12.548167 -2.459046 -32.212644 -1.393446 -1.047167 37.959466 -34.411854 -6.331756 -4.607555 3.512541 -0.401250 0.817510 -0.598700 0.381650 -5.263446 -8.914313 1.789452 30.666362 21.169727 3.038799 -45.447316 41.329731 -16.349294 1.910371 -2.207755 -0.203760 0.097950 -0.017010 0.155690 
-0.564630 16.230180 -0.798920 -2.640154 -25.139411 8.457904 -14.666957 12.471594 2.383197 7.295504 -1.538411 -12.442045 -2.784934 4.026475 9.579687 -0.397772 3.591475 3.693132 0.146890 0.022530 -0.139310 18.675903 -11.761358 3.241916 -7.564140 2.477308 -21.569094 7.268280 -3.399541 6.001806 0.341681 -3.400644 3.350954 0.257800 0.922790 0.346490 -4.625837 2.102590 -6.724660 11.748430 0.236824 2.441612 -3.439010 -0.194042 -2.018327 4.233345 0.872896 -4.273853 3.425175 0.303751 20.512455 -5.492280 0.482940 8.593020 -3.627209 12.616703 -2.507231 -32.269721 -1.460933 -1.023030 37.973815 -34.372848 -6.312815 -4.613269 3.513772 -0.403940 0.820640 -0.599900 0.382230 -5.505745 -8.955962 1.825310 30.748816 21.361403 3.160845 -45.424640 41.136575 -16.322586 1.911509 -2.216671 -0.203870 0.098710 -0.017730 0.155670 
-0.564690 16.230510 -0.799080 -2.684141 -25.090533 8.466566 -14.663959 12.471719 2.379718 7.310636 -1.544065 -12.488216 -2.736647 4.023564 9.660343 -0.401169 3.592289 3.693127 0.147570 0.025260 -0.140260 18.678084 -11.770708 3.241492 -7.528855 2.480805 -21.577761 7.279270 -3.414973 6.102900 0.343154 -3.406440 3.348899 0.261940 0.927160 0.347230 -4.631929 2.119993 -6.720545 11.821249 0.208815 2.419438 -3.535969 -0.220908 -1.997264 4.321982 0.879991 -4.263389 3.453593 0.372680 20.462577 -5.504270 0.538600 8.596760 -3.524767 12.709133 -2.568135 -32.350231 -1.558148 -0.984200 38.006236 -34.314932 -6.288660 -4.621933 3.514777 -0.408170 0.825240 -0.602490 0.383400 -5.785647 -9.008510 1.858622 30.835692 21.615950 3.320488 -45.357774 40.847845 -16.254692 1.913874 -2.227204 -0.204930 0.101110 -0.017110 0.156580 
